PathFileType	4	(X/Y/Z)	/Users/mathieubourgeois/Desktop/Analyse/Traitement/Sujet_08/Transformed_Static_Sujet_08_Tpose.trc
DataRate	CameraRate	NumFrames	NumMarkers	Units	OrigDataRate	OrigDataStartFrame	OrigNumFrames
120.000000	120.000000	4	35	mm	120.000000	81	324
Frame#	Time	RFHD			RANE			STRN			LANI			LKNE			T10			RHUM			RWRB			C7			LFWT			LTOE			LWRA			LBWT			RBWT			RFWT			LKNI			RKNI			RKNE			LANE			RANI			LHEE			RTOE			LHUM			LRAD			RRAD			RWRA			LWRB			LFHD			LBHD			RBHD			RSHO			LSHO			CLAV			LCAR			RCAR			
		X1	Y1	Z1	X2	Y2	Z2	X3	Y3	Z3	X4	Y4	Z4	X5	Y5	Z5	X6	Y6	Z6	X7	Y7	Z7	X8	Y8	Z8	X9	Y9	Z9	X10	Y10	Z10	X11	Y11	Z11	X12	Y12	Z12	X13	Y13	Z13	X14	Y14	Z14	X15	Y15	Z15	X16	Y16	Z16	X17	Y17	Z17	X18	Y18	Z18	X19	Y19	Z19	X20	Y20	Z20	X21	Y21	Z21	X22	Y22	Z22	X23	Y23	Z23	X24	Y24	Z24	X25	Y25	Z25	X26	Y26	Z26	X27	Y27	Z27	X28	Y28	Z28	X29	Y29	Z29	X30	Y30	Z30	X31	Y31	Z31	X32	Y32	Z32	X33	Y33	Z33	X34	Y34	Z34	X35	Y35	Z35	

82	0.675	-823.5385131835938	1630.511962890625	320.6221923828123	-843.8716430664062	83.01197814941408	204.9624481201171	-692.888427734375	1254.45947265625	413.9416198730468	-591.4234619140625	91.86527252197267	232.7034912109374	-527.882568359375	498.4471130371094	299.1274414062499	-678.5587768554688	1215.802124023438	185.0498809814451	-1087.8486328125	1382.473876953125	258.2454528808592	-1337.104125976562	1467.268188476562	245.4794464111326	-676.3580932617188	1473.478149414062	233.4511566162108	-559.1295776367188	967.8753051757812	371.1871643066405	-527.6952514648438	34.57396316528322	399.6412963867187	-18.72953987121585	1411.69189453125	219.0875091552734	-620.93408203125	1006.995483398438	220.7476654052733	-753.9552612304688	1007.856506347656	220.9897308349608	-796.2466430664062	970.5318603515625	379.079620361328	-630.1135864257812	438.8161315917969	257.6734313964843	-748.3836059570312	434.1817626953125	260.7416381835936	-852.4192504882812	507.0709838867188	266.3214111328123	-514.1340942382812	80.60009002685548	191.1903839111328	-765.06396484375	101.888671875	229.8050231933593	-561.5684814453125	52.73995971679688	154.9456787109374	-813.8163452148438	37.81930923461916	394.6912231445311	-278.8020935058594	1383.747192382812	273.8675231933593	-271.6072998046875	1427.924682617188	209.4352416992186	-1094.191284179688	1420.51806640625	204.8578948974607	-1342.443725585938	1413.717407226562	203.3282470703122	-28.00559234619143	1482.828979492188	243.6044311523437	-755.5802001953125	1636.744018554688	428.9107971191404	-617.8602905273438	1629.372680664062	357.4306640624998	-678.5453491210938	1636.117065429688	234.9760284423826	-792.4635620117188	1476.791015625	254.3208160400389	-572.198486328125	1473.7763671875	250.7612304687499	-696.7578735351562	1416.879760742188	355.5621643066404	71.88948059082028	1462.699096679688	210.8832550048827	-1443.758911132812	1441.756225585938	204.0176544189451	
83	0.6833333333333333	-823.9800415039062	1630.225341796875	320.3462829589841	-843.8638916015625	83.01242828369142	204.9541015624999	-692.954833984375	1254.389892578125	413.9031677246093	-591.427734375	91.87104797363283	232.7033233642577	-527.87255859375	498.4400329589844	299.2162170410155	-678.6083374023438	1215.824584960938	184.9698333740233	-1088.018188476562	1382.607788085938	258.3107299804686	-1337.183837890625	1467.693359375	245.6894836425779	-676.4385375976562	1473.502563476562	233.5466308593748	-559.1029663085938	967.8919067382812	371.236114501953	-527.7008666992188	34.56213378906252	399.6472473144531	-18.82769393920901	1411.869995117188	219.3773193359374	-620.9020385742188	1006.978637695312	220.7866058349608	-753.9140014648438	1007.820495605469	220.9783935546874	-796.2080078125	970.5363159179688	379.0875244140623	-630.097412109375	438.8098754882812	257.7180175781249	-748.3407592773438	434.1580505371094	260.8185119628905	-852.372802734375	507.0654907226562	266.4239196777342	-514.1328125	80.59433746337892	191.1830596923828	-765.0588989257812	101.883674621582	229.8215789794921	-561.5797729492188	52.73261260986329	154.9522857666015	-813.814697265625	37.81706619262697	394.7034606933593	-278.8913574218751	1383.793823242188	273.9650878906249	-271.6724548339844	1428.024047851562	209.5693511962889	-1094.348388671875	1420.664672851562	204.9566497802732	-1342.6201171875	1414.168701171875	203.5526428222654	-28.12483215332034	1482.9921875	243.9253845214843	-756.4530639648438	1636.523315429688	428.9355468749998	-618.4374389648438	1629.361572265625	357.9168395996092	-678.6936645507812	1636.139892578125	235.2416687011717	-792.5787353515625	1476.765625	254.3585510253905	-572.3160400390625	1473.75244140625	250.8289947509764	-696.9205932617188	1416.813232421875	355.5670471191404	71.85644531249997	1462.89306640625	211.2777557373046	-1443.89453125	1442.34130859375	204.2907562255857	
84	0.6916666666666667	-824.414794921875	1629.99755859375	320.0529174804685	-843.8400268554688	83.01232147216798	204.9378051757811	-693.0326538085938	1254.358276367188	413.8801879882811	-591.427978515625	91.87416839599611	232.7109832763671	-527.8516845703125	498.4336242675781	299.2709350585936	-678.6996459960938	1215.833984375	184.9208526611326	-1088.163208007812	1382.748657226562	258.3735351562498	-1337.260009765625	1468.105834960938	245.906311035156	-676.5069580078125	1473.55810546875	233.6083831787108	-559.0728149414062	967.9094848632812	371.2831726074218	-527.7120971679688	34.55678939819338	399.6397094726562	-18.93286132812503	1412.036376953125	219.679702758789	-620.8525390625	1006.946166992188	220.8235778808592	-753.8682861328125	1007.796997070312	220.9540405273436	-796.1875610351562	970.5531005859375	379.088897705078	-630.0942993164062	438.8155822753906	257.7957458496093	-748.3153076171875	434.1408386230469	260.8977661132811	-852.329345703125	507.0606689453125	266.4820556640623	-514.123046875	80.61234283447267	191.2115020751953	-765.0523681640625	101.8797607421875	229.8274841308593	-561.580322265625	52.74171829223634	154.9536437988281	-813.81005859375	37.81437301635744	394.7007446289061	-279.0189514160157	1383.833374023438	274.0739440917968	-271.7937622070312	1428.088745117188	209.7417907714843	-1094.482421875	1420.857666015625	205.0413360595701	-1342.7685546875	1414.579467773438	203.7745056152341	-28.25753593444827	1483.124755859375	244.2533264160155	-757.271484375	1636.34521484375	428.8963317871091	-619.0069580078125	1629.367431640625	358.3470764160155	-678.8359375	1636.161499023438	235.4772338867186	-792.6863403320312	1476.73681640625	254.3683471679686	-572.4337768554688	1473.741821289062	250.8705749511717	-697.091796875	1416.75048828125	355.5618591308591	71.75823974609372	1463.086059570312	211.7250976562499	-1443.773193359375	1443.32275390625	203.9119110107419	
85	0.7	-824.7736206054688	1629.76953125	319.7245788574216	-843.8388671875	83.01423645019533	204.9532012939452	-693.1416625976562	1254.315795898438	413.8595275878905	-591.4340209960938	91.87057495117189	232.7162933349609	-527.840576171875	498.4255981445312	299.3204956054686	-678.7555541992188	1215.85546875	184.8604888916014	-1088.318969726562	1382.90185546875	258.4616088867186	-1337.3681640625	1468.612426757812	246.2127227783201	-676.5795288085938	1473.583740234375	233.6734924316405	-559.0109252929688	967.92529296875	371.3040161132811	-527.7037353515625	34.56036376953127	399.6507263183593	-19.01381301879886	1412.195190429688	219.9727020263671	-620.8275146484375	1006.922485351562	220.8466949462889	-753.8152465820312	1007.763061523438	220.9769439697264	-796.1443481445312	970.5645141601562	379.0833129882811	-630.0708618164062	438.8204345703125	257.8132934570312	-748.2704467773438	434.1131286621094	260.9542236328124	-852.2845458984375	507.0641479492188	266.5372619628905	-514.1349487304688	80.60670471191408	191.2301483154296	-765.0458984375	101.8760833740235	229.8373107910155	-561.5852661132812	52.74559402465821	154.9623107910156	-813.8104248046875	37.80619812011721	394.695343017578	-279.1407470703126	1383.87744140625	274.190460205078	-271.8938903808594	1428.162841796875	209.8917694091796	-1094.6376953125	1421.028686523438	205.1426086425779	-1342.909912109375	1414.9619140625	204.0438232421872	-28.41826820373538	1483.254638671875	244.634292602539	-758.041259765625	1636.194091796875	428.8656921386716	-619.55419921875	1629.369750976562	358.6922912597655	-678.9847412109375	1636.153442382812	235.6727294921873	-792.798095703125	1476.730346679688	254.369918823242	-572.5830688476562	1473.724609375	250.8962402343749	-697.2662963867188	1416.708618164062	355.5653686523435	71.64504241943357	1463.2646484375	212.1119384765624	-1444.14453125	1443.470703125	204.9188690185544	
